<svg width="189" height="74" viewBox="0 0 189 74" fill="none" xmlns="http://www.w3.org/2000/svg">
<path d="M170.502 64.0232C171.654 63.1053 172.789 62.2442 173.877 61.3263C177.396 58.3624 180.58 55.0845 182.926 51.0591C186.846 44.3328 185.785 35.566 180.452 30.2463C178.091 27.8919 175.403 27.1502 172.261 28.3664C172.156 28.4076 172.046 28.4346 171.913 28.4758C171.24 27.1573 170.303 26.1911 168.649 25.951C170.391 24.9635 172.091 24.3369 173.927 24.118C177.805 23.6548 180.895 25.2306 183.469 28.0126C190.056 35.1284 190.834 45.7096 185.403 54.1367C182.47 58.6878 178.647 62.3806 174.436 65.6884C170.423 68.8385 166.139 71.5552 161.598 73.8513C161.311 73.9962 160.845 74.0616 160.582 73.9252C153.034 70.0547 146.091 65.3261 140.333 58.9734C137.65 56.0137 135.266 52.8111 134.096 48.9008C131.676 40.8133 133.23 33.5796 139.082 27.5054C142.689 23.7628 147.081 23.0765 151.813 25.1624C152.639 25.5275 153.429 25.9794 154.215 26.3815C153.845 26.9768 153.482 27.4741 153.215 28.0183C152.947 28.5639 152.777 29.1579 152.574 29.7035C151.588 29.2431 150.623 28.7231 149.61 28.3309C146.76 27.2255 144.148 27.7356 141.979 29.8782C137.267 34.5316 135.823 40.1781 137.281 46.6317C137.327 46.8349 137.399 47.0466 137.512 47.2185C140.306 51.4669 143.572 55.2663 147.82 58.0896C149.714 59.3485 151.793 60.1627 154.068 60.4014C154.345 60.4298 154.627 60.4411 154.905 60.4284C155.135 60.4184 155.362 60.363 155.618 60.2067C155.419 60.1413 155.22 60.076 155.023 60.0092C152.05 59.0046 149.382 57.4957 147.35 55.0291C146.946 54.5389 146.704 53.8242 146.609 53.1791C146.456 52.1333 147.327 51.4968 148.222 52.0353C152.099 54.3641 156.481 55.0404 160.748 56.1061C161.922 56.3988 163.129 56.656 164.227 57.1447C166.944 58.3553 168.841 60.4539 170.105 63.1564C170.221 63.4093 170.336 63.6651 170.502 64.0232Z" fill="#50E678"/>
<path d="M153.202 52.2455C154.796 49.6098 156.552 47.281 159.048 45.6157C160.852 44.4108 162.646 44.4094 164.377 45.7294C167.574 48.1676 169.667 51.4257 170.933 55.2222C171.291 56.2964 171.402 57.4743 171.479 58.6153C171.513 59.1225 171.179 59.6539 170.954 60.3587C170.552 59.8415 170.307 59.5104 170.046 59.1921C168.164 56.896 165.807 55.4226 162.912 54.7619C159.937 54.0827 156.988 53.2813 154.03 52.5283C153.786 52.4672 153.552 52.3663 153.202 52.2455Z" fill="#50E678"/>
<path d="M163.257 35.6287C163.249 33.1663 163.922 30.91 165.39 28.9477C165.855 28.3254 166.481 27.7698 167.142 27.3649C168.43 26.5763 169.758 26.9457 170.624 28.1975C171.29 29.1594 171.551 30.2635 171.611 31.403C171.758 34.1808 171.131 36.7582 169.437 38.9876C169.007 39.5545 168.437 40.0575 167.838 40.4369C166.509 41.2766 165.131 40.9257 164.24 39.6213C163.564 38.631 163.263 37.4019 163.257 35.6287Z" fill="#50E678"/>
<path d="M153.303 32.865C153.293 30.9255 153.516 29.5828 154.128 28.3324C155.269 26.0022 157.419 25.6924 159.132 27.6248C160.406 29.0627 160.976 30.8303 161.257 32.6987C161.53 34.5203 161.483 36.3305 160.754 38.0554C160.275 39.1864 159.652 40.2478 158.31 40.4411C156.881 40.6471 155.935 39.7946 155.164 38.7204C153.795 36.815 153.342 34.6226 153.303 32.865Z" fill="#50E678"/>
<path d="M177.883 43.8242C177.728 46.1502 176.965 48.1622 175.484 49.8857C175.137 50.2906 174.725 50.6629 174.281 50.9527C172.302 52.2443 170.252 51.5254 169.58 49.2406C168.819 46.656 169.339 44.205 170.8 42.0155C171.382 41.1431 172.192 40.3289 173.074 39.7819C174.738 38.7489 176.448 39.357 177.225 41.1772C177.578 42.0013 177.672 42.939 177.883 43.8242Z" fill="#50E678"/>
<path d="M154.575 44.7307C154.258 45.7452 154.068 46.835 153.59 47.7741C152.822 49.286 151.189 49.7065 149.764 48.8085C147.06 47.1049 145.938 44.5019 146.012 41.366C146.035 40.4041 146.245 39.3711 146.652 38.5087C147.416 36.8931 148.969 36.474 150.557 37.291C152.124 38.0966 153.06 39.4891 153.652 41.0819C154.074 42.2171 154.258 43.4419 154.575 44.7307Z" fill="#50E678"/>
<g clip-path="url(#clip0_44_1522)">
<path d="M72.3979 19.4507L67.6967 19.4141C66.6694 19.4061 65.7327 20.1202 65.4862 21.1175L63.734 27.8973C63.3881 29.2968 64.544 30.7728 65.9857 30.7728H69.3151C69.4817 30.7728 69.7366 30.8984 69.6548 31.2167L61.2989 63.7435C60.3643 67.4092 63.1339 71.0844 66.9167 71.0844H72.0225C72.5453 71.0844 73.0512 70.8999 73.4513 70.5634C74.7277 69.3981 94.6008 53.6786 96.6654 53.6786C97.2413 53.6296 97.8112 53.6618 98.3635 53.8387C99.5608 54.2228 100.231 55.116 100.617 56.2511C101.082 57.6193 101.567 58.9776 102.159 60.2978C103.047 62.2789 104.115 64.1521 105.498 65.8288C106.88 67.5054 108.507 68.8835 110.488 69.8124C112.719 70.8586 115.074 71.2012 117.515 71.0076C119.759 70.8297 121.908 70.2501 123.997 69.4341C126.606 68.4141 129.046 67.0738 131.392 65.5514C133.476 64.1905 135.48 62.7086 137.391 61.1133C137.958 60.6424 138.517 60.1635 139.068 59.6763C139.74 59.0926 140.358 58.1306 140.554 57.3487L140.873 56.0723C141.274 54.4701 140.329 54.4127 139.937 54.7071C138.146 56.0402 136.337 57.3487 134.399 58.4653C132.651 59.4724 130.831 60.2875 128.798 60.5108C127.073 60.6985 125.535 60.2904 124.256 59.0665C123.208 58.0642 122.549 56.8166 122.01 55.4973C121.311 53.7833 120.855 51.9955 120.429 50.1991C120.124 48.9198 119.842 47.6327 119.473 46.3714C119.004 44.7678 118.282 43.275 117.251 41.948C116.032 40.3817 114.48 39.3073 112.541 38.8477C110.639 38.399 108.759 38.5788 106.912 39.172C104.074 40.0835 98.9778 44.2977 96.5048 46.3524C94.2311 48.2416 84.9604 56.2461 80.2606 56.2461C78.8103 56.2461 77.7496 54.8781 78.1105 53.4736C80.7805 43.0816 83.377 32.7165 83.8122 31.0143C83.8498 30.8673 83.9798 30.7732 84.1315 30.7728L91.3981 30.7526C92.4085 30.7497 93.2925 30.0297 93.5443 29.0512L95.2504 22.2258C95.612 20.8211 94.5513 19.4527 93.1008 19.4527H87.2927C87.0753 19.4527 86.9162 19.2477 86.9702 19.0369L91.401 1.76137C91.7029 0.584629 90.7905 0.0297073 90.1849 0.0298157H81.8564C79.3593 0.0300633 77.2505 1.63898 76.6154 4.19161L72.7228 19.2013C72.6844 19.349 72.5505 19.4518 72.3979 19.4507Z" fill="#7D1AD7"/>
<path d="M116.966 15.5895C115.838 16.3849 114.985 17.4477 114.237 18.5909C113.339 19.9624 112.07 22.2315 111.149 24.4907C109.815 27.7621 111.826 30.9179 115.359 30.8715C117.767 30.84 120.171 30.4508 121.134 30.1832C122.857 29.7048 124.494 29.0336 125.979 28.039C128.11 26.6123 129.21 24.6072 129.138 22.0171C129.1 20.7288 128.75 19.5052 128.155 18.359C127.031 16.1877 125.283 14.7704 122.896 14.2414C120.732 13.7613 118.753 14.3299 116.966 15.5895Z" fill="#7D1AD7"/>
<path d="M57.8211 14.0138C61.6827 14.0138 64.8131 10.8834 64.8131 7.02181C64.8131 3.16024 61.6827 0.029808 57.8211 0.029808C53.9595 0.029808 50.8291 3.16024 50.8291 7.02181C50.8291 10.8834 53.9595 14.0138 57.8211 14.0138Z" fill="#7D1AD7"/>
<path d="M50.4484 19.5079C47.918 19.5079 46.8644 21.4311 46.6538 22.3927L35.0217 67.6071C34.6332 69.1171 35.632 71.06 37.7962 71.06H47.3961C48.3727 71.06 48.7092 70.3933 48.8091 70.0049L61.4302 20.9499C61.7157 19.8401 60.8254 19.5079 60.3977 19.5079H50.4484Z" fill="#7D1AD7"/>
<path d="M40.1908 21.1514C29.3736 16.3069 8.0055 15.7992 0.996874 41.984C-3.74355 59.6944 8.95713 77.9357 27.7521 69.5027C28.64 69.1267 29.0284 68.2841 29.1394 67.6804L31.7475 57.5204C32.025 56.4395 30.8042 55.7313 29.953 56.1991C19.727 61.8193 10.1959 54.7426 15.3694 42.0394C20.457 29.547 30.8642 31.3524 36.1869 34.2941C36.8416 34.656 37.7618 34.3696 37.9627 33.5596L40.7563 22.2929C40.8229 22.0246 40.7928 21.4306 40.1908 21.1514Z" fill="#7D1AD7"/>
</g>
<defs>
<clipPath id="clip0_44_1522">
<rect width="141" height="71.6391" fill="white"/>
</clipPath>
</defs>
</svg>
