<svg width="220" height="24" viewBox="0 0 220 24" fill="none" xmlns="http://www.w3.org/2000/svg">
<path d="M0.882812 17.5V9.375H2.16406V10.6719H2.19531C2.57812 9.8125 3.40625 9.23438 4.5 9.23438C5.60938 9.23438 6.42969 9.79688 6.78125 10.7812H6.8125C7.26562 9.8125 8.21875 9.23438 9.35938 9.23438C10.9688 9.23438 12.0078 10.2812 12.0078 11.8906V17.5H10.6484V12.2031C10.6484 11.0938 10.0312 10.4375 8.96094 10.4375C7.88281 10.4375 7.125 11.2344 7.125 12.3359V17.5H5.76562V12.0547C5.76562 11.0781 5.10938 10.4375 4.10156 10.4375C3.02344 10.4375 2.24219 11.2812 2.24219 12.4062V17.5H0.882812ZM16.4219 16.4844C17.7031 16.4844 18.6875 15.5859 18.6875 14.4141V13.75L16.5156 13.8828C15.4219 13.9531 14.7969 14.4375 14.7969 15.2031C14.7969 15.9766 15.4453 16.4844 16.4219 16.4844ZM16.1172 17.6406C14.5 17.6406 13.4141 16.6641 13.4141 15.2031C13.4141 13.8125 14.4844 12.9375 16.3594 12.8281L18.6875 12.6953V12.0156C18.6875 11.0234 18.0312 10.4297 16.9062 10.4297C15.8594 10.4297 15.2031 10.9219 15.0312 11.7188H13.7188C13.8125 10.3125 15.0156 9.23438 16.9375 9.23438C18.8438 9.23438 20.0469 10.2656 20.0469 11.8828V17.5H18.7578V16.1016H18.7266C18.2422 17.0312 17.2109 17.6406 16.1172 17.6406ZM24.8516 17.6406C22.7812 17.6406 21.375 15.9844 21.375 13.4375C21.375 10.8906 22.7734 9.23438 24.8203 9.23438C25.9844 9.23438 26.9219 9.80469 27.4062 10.6953H27.4375V6.22656H28.7969V17.5H27.5V16.125H27.4766C26.9531 17.0625 26.0234 17.6406 24.8516 17.6406ZM25.1094 10.4297C23.6719 10.4297 22.7656 11.6016 22.7656 13.4375C22.7656 15.2812 23.6719 16.4453 25.1094 16.4453C26.5078 16.4453 27.4453 15.2578 27.4453 13.4375C27.4453 11.625 26.5078 10.4297 25.1094 10.4297ZM33.8906 10.4141C32.6172 10.4141 31.7266 11.3906 31.6406 12.7422H36.0547C36.0234 11.3828 35.1719 10.4141 33.8906 10.4141ZM36.0234 15.1719H37.3594C37.125 16.5938 35.75 17.6406 33.9766 17.6406C31.6484 17.6406 30.2344 16.0234 30.2344 13.4688C30.2344 10.9453 31.6719 9.23438 33.9141 9.23438C36.1094 9.23438 37.4609 10.8281 37.4609 13.2891V13.8047H31.6328V13.8828C31.6328 15.4375 32.5469 16.4609 34.0078 16.4609C35.0391 16.4609 35.7969 15.9375 36.0234 15.1719ZM52.4531 9.375L50.1875 17.5H48.8047L46.9688 11.2109H46.9375L45.1094 17.5H43.7266L41.4531 9.375H42.8047L44.4297 15.9844H44.4609L46.2969 9.375H47.6094L49.4531 15.9844H49.4844L51.1094 9.375H52.4531ZM53.6406 17.5V9.375H55V17.5H53.6406ZM54.3203 8.00781C53.8594 8.00781 53.4766 7.625 53.4766 7.16406C53.4766 6.69531 53.8594 6.32031 54.3203 6.32031C54.7891 6.32031 55.1719 6.69531 55.1719 7.16406C55.1719 7.625 54.7891 8.00781 54.3203 8.00781ZM57.2734 7.41406H58.6328V9.375H60.2109V10.4922H58.6328V15.3203C58.6328 16.0625 58.9453 16.3984 59.6406 16.3984C59.7969 16.3984 60.1094 16.375 60.2031 16.3594V17.5C60.0391 17.5391 59.6641 17.5625 59.3438 17.5625C57.8516 17.5625 57.2734 16.9531 57.2734 15.3906V10.4922H56.0625V9.375H57.2734V7.41406ZM61.7344 17.5V6.22656H63.0938V10.6719H63.125C63.5781 9.76562 64.4688 9.23438 65.7031 9.23438C67.4844 9.23438 68.5625 10.4375 68.5625 12.25V17.5H67.2031V12.5C67.2031 11.2109 66.5547 10.4375 65.2812 10.4375C63.9297 10.4375 63.0938 11.3594 63.0938 12.7656V17.5H61.7344Z" fill="#7D1AD7"/>
<path d="M86 21.35L84.55 20.05C82.8667 18.5333 81.475 17.225 80.375 16.125C79.275 15.025 78.4 14.0375 77.75 13.1625C77.1 12.2875 76.6458 11.4833 76.3875 10.75C76.1292 10.0167 76 9.26667 76 8.5C76 6.93333 76.525 5.625 77.575 4.575C78.625 3.525 79.9333 3 81.5 3C82.3667 3 83.1917 3.18333 83.975 3.55C84.7583 3.91667 85.4333 4.43333 86 5.1C86.5667 4.43333 87.2417 3.91667 88.025 3.55C88.8083 3.18333 89.6333 3 90.5 3C92.0667 3 93.375 3.525 94.425 4.575C95.475 5.625 96 6.93333 96 8.5C96 9.26667 95.8708 10.0167 95.6125 10.75C95.3542 11.4833 94.9 12.2875 94.25 13.1625C93.6 14.0375 92.725 15.025 91.625 16.125C90.525 17.225 89.1333 18.5333 87.45 20.05L86 21.35ZM86 18.65C87.6 17.2167 88.9167 15.9875 89.95 14.9625C90.9833 13.9375 91.8 13.0458 92.4 12.2875C93 11.5292 93.4167 10.8542 93.65 10.2625C93.8833 9.67083 94 9.08333 94 8.5C94 7.5 93.6667 6.66667 93 6C92.3333 5.33333 91.5 5 90.5 5C89.7167 5 88.9917 5.22083 88.325 5.6625C87.6583 6.10417 87.2 6.66667 86.95 7.35H85.05C84.8 6.66667 84.3417 6.10417 83.675 5.6625C83.0083 5.22083 82.2833 5 81.5 5C80.5 5 79.6667 5.33333 79 6C78.3333 6.66667 78 7.5 78 8.5C78 9.08333 78.1167 9.67083 78.35 10.2625C78.5833 10.8542 79 11.5292 79.6 12.2875C80.2 13.0458 81.0167 13.9375 82.05 14.9625C83.0833 15.9875 84.4 17.2167 86 18.65Z" fill="#7D1AD7"/>
<path d="M105.562 16.4844C106.844 16.4844 107.828 15.5859 107.828 14.4141V13.75L105.656 13.8828C104.562 13.9531 103.938 14.4375 103.938 15.2031C103.938 15.9766 104.586 16.4844 105.562 16.4844ZM105.258 17.6406C103.641 17.6406 102.555 16.6641 102.555 15.2031C102.555 13.8125 103.625 12.9375 105.5 12.8281L107.828 12.6953V12.0156C107.828 11.0234 107.172 10.4297 106.047 10.4297C105 10.4297 104.344 10.9219 104.172 11.7188H102.859C102.953 10.3125 104.156 9.23438 106.078 9.23438C107.984 9.23438 109.188 10.2656 109.188 11.8828V17.5H107.898V16.1016H107.867C107.383 17.0312 106.352 17.6406 105.258 17.6406ZM110.914 17.5V9.375H112.195V10.6719H112.227C112.68 9.79688 113.547 9.23438 114.805 9.23438C116.586 9.23438 117.617 10.3828 117.617 12.2266V17.5H116.258V12.4688C116.258 11.1562 115.641 10.4375 114.391 10.4375C113.109 10.4375 112.273 11.3438 112.273 12.7188V17.5H110.914ZM122.43 17.6406C120.359 17.6406 118.953 15.9844 118.953 13.4375C118.953 10.8906 120.352 9.23438 122.398 9.23438C123.562 9.23438 124.5 9.80469 124.984 10.6953H125.016V6.22656H126.375V17.5H125.078V16.125H125.055C124.531 17.0625 123.602 17.6406 122.43 17.6406ZM122.688 10.4297C121.25 10.4297 120.344 11.6016 120.344 13.4375C120.344 15.2812 121.25 16.4453 122.688 16.4453C124.086 16.4453 125.023 15.2578 125.023 13.4375C125.023 11.625 124.086 10.4297 122.688 10.4297ZM138.883 9.84375L133.359 12.9688V13.0391L138.883 15.9922V17.4453L132.016 13.6094V12.5L138.883 8.39062V9.84375ZM141.461 19.8984H140.297L144.289 6.22656H145.453L141.461 19.8984ZM146.859 9.83594V8.38281L153.727 12.4922V13.6016L146.859 17.4375V15.9844L152.383 13.0312V12.9609L146.859 9.83594ZM163.344 17.6406C162.156 17.6406 161.227 17.0625 160.703 16.125H160.672V17.5H159.375V6.22656H160.734V10.7344H160.766C161.273 9.80469 162.219 9.23438 163.367 9.23438C165.414 9.23438 166.797 10.8906 166.797 13.4375C166.797 15.9922 165.422 17.6406 163.344 17.6406ZM163.078 10.4297C161.703 10.4297 160.727 11.6328 160.727 13.4375C160.727 15.25 161.703 16.4453 163.078 16.4453C164.516 16.4453 165.406 15.2969 165.406 13.4375C165.406 11.5938 164.516 10.4297 163.078 10.4297ZM168.617 20.5391C168.453 20.5391 168.18 20.5234 168.031 20.4922V19.3516C168.18 19.3828 168.391 19.3906 168.562 19.3906C169.32 19.3906 169.742 19.0234 170.055 18.0781L170.242 17.5078L167.242 9.375H168.695L170.945 16.1406H170.969L173.219 9.375H174.648L171.453 18.0703C170.758 19.9688 170.086 20.5391 168.617 20.5391Z" fill="#7D1AD7"/>
<g clip-path="url(#clip0_44_1525)">
<path d="M200.052 7.2017L198.685 7.19097C198.386 7.18864 198.114 7.39797 198.042 7.6903L197.533 9.67769C197.432 10.0879 197.768 10.5206 198.187 10.5206H199.156C199.204 10.5206 199.278 10.5574 199.254 10.6507L196.825 20.1855C196.553 21.26 197.358 22.3374 198.458 22.3374H199.943C200.095 22.3374 200.242 22.2833 200.358 22.1847C200.729 21.8431 206.508 17.2351 207.108 17.2351C207.276 17.2208 207.442 17.2302 207.602 17.2821C207.95 17.3946 208.145 17.6565 208.258 17.9892C208.393 18.3903 208.534 18.7885 208.706 19.1754C208.964 19.7562 209.275 20.3053 209.677 20.7968C210.079 21.2882 210.552 21.6922 211.128 21.9645C211.777 22.2712 212.461 22.3716 213.171 22.3149C213.824 22.2627 214.449 22.0928 215.056 21.8536C215.815 21.5546 216.524 21.1617 217.206 20.7155C217.812 20.3165 218.395 19.8821 218.951 19.4145C219.116 19.2765 219.278 19.1361 219.438 18.9933C219.634 18.8222 219.813 18.5402 219.871 18.311L219.963 17.9368C220.08 17.4671 219.805 17.4503 219.691 17.5366C219.17 17.9274 218.644 18.311 218.081 18.6383C217.572 18.9335 217.043 19.1724 216.452 19.2379C215.95 19.2929 215.503 19.1733 215.131 18.8145C214.827 18.5207 214.635 18.155 214.478 17.7683C214.275 17.2658 214.142 16.7417 214.018 16.2151C213.93 15.8402 213.848 15.4629 213.74 15.0931C213.604 14.623 213.394 14.1855 213.094 13.7965C212.74 13.3373 212.289 13.0224 211.725 12.8876C211.172 12.7561 210.625 12.8088 210.088 12.9827C209.263 13.2499 207.781 14.4852 207.062 15.0876C206.401 15.6414 203.705 17.9878 202.338 17.9878C201.917 17.9878 201.608 17.5868 201.713 17.175C202.489 14.1288 203.244 11.0904 203.371 10.5914C203.382 10.5483 203.42 10.5207 203.464 10.5206L205.577 10.5147C205.871 10.5138 206.128 10.3028 206.201 10.016L206.697 8.01517C206.802 7.6034 206.494 7.20229 206.072 7.20229H204.383C204.32 7.20229 204.274 7.14218 204.289 7.08041L205.578 2.01632C205.665 1.67138 205.4 1.50871 205.224 1.50874H202.802C202.076 1.50882 201.463 1.98045 201.278 2.72871L200.146 7.1286C200.135 7.1719 200.096 7.20203 200.052 7.2017Z" fill="#7D1AD7"/>
<path d="M213.011 6.06984C212.683 6.30299 212.435 6.61454 212.218 6.94965C211.957 7.35169 211.588 8.01686 211.32 8.67911C210.932 9.63806 211.517 10.5631 212.544 10.5496C213.244 10.5403 213.943 10.4262 214.223 10.3478C214.724 10.2075 215.2 10.0108 215.632 9.71924C216.252 9.30102 216.571 8.71324 216.551 7.95401C216.539 7.57635 216.438 7.21768 216.265 6.88168C215.938 6.24518 215.43 5.82975 214.736 5.67466C214.106 5.53393 213.531 5.70059 213.011 6.06984Z" fill="#7D1AD7"/>
<path d="M195.813 5.60795C196.936 5.60795 197.847 4.69031 197.847 3.55834C197.847 2.42638 196.936 1.50874 195.813 1.50874C194.691 1.50874 193.78 2.42638 193.78 3.55834C193.78 4.69031 194.691 5.60795 195.813 5.60795Z" fill="#7D1AD7"/>
<path d="M193.669 7.21846C192.933 7.21846 192.627 7.78223 192.565 8.0641L189.183 21.3181C189.07 21.7607 189.361 22.3302 189.99 22.3302H192.781C193.065 22.3302 193.163 22.1348 193.192 22.0209L196.862 7.64117C196.945 7.31585 196.686 7.21846 196.562 7.21846H193.669Z" fill="#7D1AD7"/>
<path d="M190.687 7.70023C187.541 6.28013 181.328 6.13132 179.29 13.807C177.911 18.9986 181.605 24.3457 187.07 21.8737C187.328 21.7635 187.441 21.5165 187.473 21.3395L188.232 18.3613C188.312 18.0444 187.957 17.8368 187.71 17.974C184.736 19.6214 181.965 17.547 183.469 13.8233C184.948 10.1613 187.975 10.6905 189.522 11.5528C189.713 11.6589 189.98 11.575 190.039 11.3375L190.851 8.03486C190.87 7.9562 190.862 7.78208 190.687 7.70023Z" fill="#7D1AD7"/>
</g>
<defs>
<clipPath id="clip0_44_1525">
<rect width="41" height="21" fill="white" transform="translate(179 1.5)"/>
</clipPath>
</defs>
</svg>
